<?xml version="1.0" encoding="UTF-8"?>
<svg version="1.1" xmlns="http://www.w3.org/2000/svg" width="1029" height="570">
<path d="M0 0 C1.44731318 -0.0027188 2.89462497 -0.00628466 4.3419342 -0.01062012 C8.2283202 -0.01964084 12.11459852 -0.01624307 16.0009861 -0.00986195 C20.09567144 -0.00474789 24.19034842 -0.00950825 28.28503418 -0.01263428 C35.15732453 -0.01625833 42.0295717 -0.01151603 48.90185547 -0.00195312 C56.81239073 0.0089284 64.72282285 0.00540171 72.63335562 -0.00560594 C79.46268382 -0.01472353 86.29198124 -0.01594235 93.12131357 -0.0107286 C97.18375237 -0.00763335 101.24614292 -0.00713139 105.30857849 -0.01380157 C109.13038831 -0.01963997 112.95206698 -0.01546135 116.77386284 -0.00401306 C118.16446657 -0.00140079 119.55508161 -0.00207159 120.94568062 -0.00653839 C146.9876478 -0.08238454 169.16203405 6.69450431 188.51757812 24.63378906 C189.72414063 25.93316406 189.72414063 25.93316406 190.95507812 27.25878906 C191.93541016 28.23138672 191.93541016 28.23138672 192.93554688 29.22363281 C206.47869014 43.23297722 215.0164291 62.49371348 215.10897827 82.07853699 C215.11336053 82.73996037 215.11774278 83.40138376 215.12225783 84.08285028 C215.13554922 86.28627501 215.14180297 88.48965984 215.14794922 90.69311523 C215.15585835 92.27891719 215.16412779 93.86471739 215.17272949 95.45051575 C215.19887427 100.65091248 215.21425802 105.85131691 215.22851562 111.05175781 C215.23387999 112.84986182 215.23925751 114.64796579 215.24464798 116.44606972 C215.26627312 123.93603285 215.2850025 131.42599391 215.29627037 138.91598034 C215.31246048 149.60370351 215.34552177 160.29106035 215.40267122 170.9786455 C215.44158618 178.51700512 215.46092884 186.05526771 215.46619093 193.59372503 C215.46981745 198.0830432 215.48154551 202.57197006 215.51429367 207.06117821 C215.81116064 249.82360377 215.81116064 249.82360377 205.70507812 267.25878906 C205.32013184 267.95045166 204.93518555 268.64211426 204.53857422 269.35473633 C192.28777829 290.73509043 172.87088899 303.86174065 149.84179688 311.25878906 C142.21295203 313.23487839 134.63867792 313.56465731 126.79492188 313.82910156 C125.02987556 313.89121071 125.02987556 313.89121071 123.22917175 313.95457458 C109.74237245 314.38831838 96.25968274 314.36909183 82.76757812 314.32128906 C80.24088633 314.3162529 77.71419353 314.31169381 75.1875 314.30761719 C69.11000358 314.29680472 63.03254585 314.28024187 56.95507812 314.25878906 C56.90862603 306.03513488 56.87314375 297.81153604 56.85145378 289.58778286 C56.84104083 285.76867965 56.8269274 281.94966658 56.80419922 278.13061523 C56.78238166 274.44126061 56.7704908 270.75199239 56.76532364 267.0625782 C56.76164382 265.65885115 56.75445821 264.25512854 56.74361801 262.85143852 C56.72898528 260.877162 56.7282602 258.90279753 56.72802734 256.9284668 C56.72358612 255.80705795 56.7191449 254.68564911 56.71456909 253.53025818 C57.11080335 248.14057235 57.88517345 244.35300975 61.70507812 240.44628906 C68.4523615 235.90484833 74.82778842 235.90473827 82.72070312 235.73144531 C85.08008206 235.66061259 87.43945693 235.58964454 89.79882812 235.51855469 C93.48428781 235.41837453 97.1698068 235.32217368 100.85546875 235.22973633 C126.9014561 234.60626665 126.9014561 234.60626665 152.14257812 228.57128906 C152.87613525 228.31710205 153.60969238 228.06291504 154.36547852 227.80102539 C174.44431879 220.55894341 191.94911464 207.51957408 202.41992188 188.58300781 C210.32186912 171.47217548 212.82789547 152.3862186 206.95507812 134.25878906 C203.27315776 125.11579496 198.57708941 116.60125065 191.95507812 109.25878906 C191.21257812 108.37900391 191.21257812 108.37900391 190.45507812 107.48144531 C171.79609953 86.90992142 142.18849042 81.78235842 115.95507812 80.25878906 C107.1808521 79.93676976 98.40182492 79.97588579 89.62304688 79.99316406 C87.16498273 79.99181249 84.70691884 79.98986788 82.24885559 79.98736572 C77.14528815 79.98444483 72.04179153 79.98861794 66.93823242 79.99804688 C60.41321622 80.00951889 53.88836321 80.00281399 47.36335278 79.99090195 C42.30779289 79.983668 37.25227164 79.985977 32.19671059 79.99115753 C29.78985893 79.9924857 27.38300371 79.99087571 24.97615623 79.98619843 C21.62032134 79.98109916 18.26475081 79.98888776 14.90893555 80 C13.9285733 79.99595154 12.94821106 79.99190308 11.93814087 79.98773193 C3.57237062 80.03884987 -4.49587239 80.58294618 -11.04492188 86.25878906 C-17.88046963 94.42210508 -19.34924584 102.78813249 -19.32339478 113.19960022 C-19.32918718 114.05258538 -19.33497958 114.90557054 -19.34094751 115.78440374 C-19.35783191 118.61713205 -19.36081398 121.4496963 -19.36376953 124.2824707 C-19.37307569 126.32318516 -19.38324539 128.36389583 -19.39421082 130.40460205 C-19.42144722 135.92661225 -19.43664138 141.44859703 -19.44963884 146.97065663 C-19.46529723 152.74824381 -19.49207882 158.52577929 -19.51766968 164.30332947 C-19.56440953 175.23591936 -19.60117685 186.16851903 -19.63434255 197.10115761 C-19.6725978 209.55098009 -19.72199906 222.00075059 -19.77232671 234.45052922 C-19.8755753 260.05324885 -19.96338747 285.65599044 -20.04492188 311.25878906 C5.03507813 311.58878906 30.11507812 311.91878906 55.95507812 312.25878906 C50.32244147 317.89142572 50.32244147 317.89142572 47.74804688 319.95019531 C47.16982178 320.41369385 46.59159668 320.87719238 45.99584961 321.35473633 C45.38427002 321.83869873 44.77269043 322.32266113 44.14257812 322.82128906 C43.49168213 323.33941162 42.84078613 323.85753418 42.17016602 324.39135742 C36.81102359 328.63371835 31.35761594 332.74284149 25.87451172 336.82299805 C20.86144087 340.55869401 15.92885043 344.38522851 11.02416992 348.26171875 C6.75046583 351.63898144 2.44434939 354.97133593 -1.87866211 358.28540039 C-6.5348777 361.85838709 -11.16577208 365.46333326 -15.79492188 369.07128906 C-22.38520318 374.20578806 -29.00614557 379.2978405 -35.64941406 384.36352539 C-40.80458742 388.29895854 -45.93023372 392.27091689 -51.04492188 396.25878906 C-57.54134244 401.32398445 -64.06426443 406.35207784 -70.62182617 411.33789062 C-74.4328388 414.24075652 -78.21548966 417.17460958 -81.97070312 420.14941406 C-82.78667969 420.79330078 -83.60265625 421.4371875 -84.44335938 422.10058594 C-86.01936917 423.34634772 -87.59119457 424.59742675 -89.15820312 425.85449219 C-90.22554688 426.69657227 -90.22554688 426.69657227 -91.31445312 427.55566406 C-91.93940674 428.05420898 -92.56436035 428.55275391 -93.20825195 429.06640625 C-95.16614337 430.33748716 -96.78666962 430.74911998 -99.04492188 431.25878906 C-99.11362308 386.63736473 -99.16646848 342.01594602 -99.19811786 297.3944792 C-99.20186988 292.12374451 -99.20575286 286.85300993 -99.2097168 281.58227539 C-99.21050373 280.53298903 -99.21129066 279.48370266 -99.21210144 278.40261974 C-99.22514713 261.42382088 -99.24879638 244.44505256 -99.27638026 227.4662718 C-99.30445772 210.03802967 -99.32110309 192.60980352 -99.32718736 175.18153971 C-99.33129894 164.43169148 -99.34427431 153.6819296 -99.36867128 142.93210795 C-99.38455735 135.55557591 -99.38931573 128.17908835 -99.38542601 120.80254046 C-99.38350893 116.54983619 -99.38639986 112.29728258 -99.4025383 108.04460526 C-99.41723273 104.14377071 -99.417813 100.24318686 -99.40761856 96.34234031 C-99.40636026 94.93834472 -99.41008464 93.53433291 -99.41957142 92.13036881 C-99.58042601 66.83445046 -89.02963385 46.44764106 -72.04492188 28.25878906 C-51.71000966 7.6653822 -28.43280905 -0.09133019 0 0 Z " fill="#A9BD31" transform="translate(568.044921875,-0.2587890625)"/>
<path d="M0 0 C10.1416484 10.42336086 12.5783411 23.26391436 12.40234375 37.3828125 C11.78361136 49.28151234 8.81590007 60.61364805 0.25 69.3125 C-7.62112735 75.06616266 -15.34604198 76.93470887 -24.9375 75.7890625 C-32.26044553 74.54823006 -36.85991879 73.02456497 -42.75 68.3125 C-43.08 76.8925 -43.41 85.4725 -43.75 94.3125 C-50.68 94.3125 -57.61 94.3125 -64.75 94.3125 C-64.75 61.6425 -64.75 28.9725 -64.75 -4.6875 C-58.15 -4.6875 -51.55 -4.6875 -44.75 -4.6875 C-44.42 -2.0475 -44.09 0.5925 -43.75 3.3125 C-43.3375 2.91417969 -42.925 2.51585937 -42.5 2.10546875 C-30.36600004 -9.02639282 -13.59836736 -8.3444527 0 0 Z M-37.6015625 15.046875 C-44.08011078 23.28069499 -44.66803211 32.11214325 -43.75 42.3125 C-42.23596433 48.49958632 -39.85696925 53.32657278 -34.75 57.3125 C-30.73823573 59.52952762 -27.28931636 59.78208445 -22.75 59.3125 C-16.4879758 56.93724944 -14.48794897 53.83055624 -11.6953125 47.84765625 C-8.28219574 38.69429767 -8.7042243 28.18905265 -12.75 19.3125 C-15.57847279 14.92349049 -18.51713389 11.58535933 -23.75 10.3125 C-28.9005515 10.3125 -33.76595053 11.45402328 -37.6015625 15.046875 Z " fill="#D83F40" transform="translate(534.75,473.6875)"/>
<path d="M0 0 C8.28793504 6.2390589 14.49677671 14.53541905 16.74609375 24.7890625 C18.50776616 38.83894367 16.95374713 51.86221745 8.0625 63.3125 C2.44947886 68.9350671 -3.19156268 72.5738809 -10.9375 74.3125 C-11.77925781 74.52648437 -12.62101563 74.74046875 -13.48828125 74.9609375 C-25.53750596 77.64629293 -37.78436426 76.27135823 -48.41015625 69.80859375 C-57.75725809 63.08304969 -63.0516359 53.61099556 -64.9375 42.3125 C-65.83386437 29.47035661 -63.93577188 17.68580457 -55.9375 7.3125 C-50.45792415 1.24507694 -44.73414248 -2.30407043 -36.9375 -4.6875 C-36.31230469 -4.87957031 -35.68710937 -5.07164062 -35.04296875 -5.26953125 C-23.88066605 -7.48542436 -9.74709354 -6.06302259 0 0 Z M-36.6875 15.625 C-43.0278366 23.19817983 -43.57170311 30.78770884 -42.9375 40.3125 C-41.77318452 47.28852577 -39.29704206 52.61090684 -33.9375 57.3125 C-29.67417028 59.96267794 -24.8188138 59.85672881 -19.9375 59.3125 C-15.39010746 58.09333605 -11.89269251 56.00649064 -8.9375 52.3125 C-4.10012064 43.89187667 -3.44536713 33.77556694 -5.62109375 24.3515625 C-7.64021354 18.77175428 -9.87009043 15.43090589 -14.9375 12.3125 C-23.1935462 9.30015882 -29.84118453 9.86787108 -36.6875 15.625 Z " fill="#D83F40" transform="translate(822.9375,473.6875)"/>
<path d="M0 0 C6.58265725 4.01900332 10.01806449 9.03066826 11.9543457 16.45214844 C13.52454463 23.08886514 13.69764685 29.40982422 13.60546875 36.203125 C13.60122391 37.4069281 13.59697906 38.6107312 13.59260559 39.85101318 C13.57597295 43.65091461 13.53834952 47.45026211 13.5 51.25 C13.48493325 53.84504436 13.47124836 56.44009713 13.45898438 59.03515625 C13.42611996 65.35698038 13.37444536 71.67839667 13.3125 78 C6.3825 78 -0.5475 78 -7.6875 78 C-7.73648438 74.63941406 -7.78546875 71.27882813 -7.8359375 67.81640625 C-7.89004118 64.539752 -7.94731176 61.26316721 -8.00488281 57.98657227 C-8.04302223 55.72002396 -8.07790057 53.45341823 -8.109375 51.18676758 C-8.1553534 47.91727254 -8.21329266 44.64816775 -8.2734375 41.37890625 C-8.28498871 40.37541641 -8.29653992 39.37192657 -8.30844116 38.33802795 C-8.45565834 31.22291668 -8.91955506 24.39445428 -12.25 18 C-15.82097788 15.06996686 -19.13934511 14.73106562 -23.6875 15 C-28.43207154 16.61136392 -31.02626151 18.77872515 -33.6875 23 C-36.57779263 29.61133681 -37.15163108 35.79391879 -37.19921875 42.94140625 C-37.21716995 43.94968979 -37.23512115 44.95797333 -37.25361633 45.99681091 C-37.30736129 49.18533267 -37.34149973 52.37370786 -37.375 55.5625 C-37.40820469 57.73765045 -37.44269723 59.91278164 -37.47851562 62.08789062 C-37.56546732 67.39194401 -37.62584277 72.69535244 -37.6875 78 C-44.6175 78 -51.5475 78 -58.6875 78 C-58.6875 51.93 -58.6875 25.86 -58.6875 -1 C-52.0875 -1 -45.4875 -1 -38.6875 -1 C-38.3575 1.64 -38.0275 4.28 -37.6875 7 C-36.4809375 5.88625 -36.4809375 5.88625 -35.25 4.75 C-25.51223987 -3.1254696 -11.6475513 -5.20610247 0 0 Z " fill="#D73F40" transform="translate(1014.6875,470)"/>
<path d="M0 0 C8.18037379 5.8131594 13.09776336 13.8124465 15.11083984 23.67675781 C16.13803606 29.99060988 16.6953125 36.23828023 16.6953125 42.640625 C-1.1246875 42.640625 -18.9446875 42.640625 -37.3046875 42.640625 C-33.70716824 53.40712748 -33.70716824 53.40712748 -26.26953125 58.87109375 C-16.12800858 62.84302211 -6.15456459 60.34277359 3.6953125 56.640625 C4.41847656 56.26679687 5.14164063 55.89296875 5.88671875 55.5078125 C7.6953125 54.640625 7.6953125 54.640625 10.6953125 54.640625 C10.6953125 60.250625 10.6953125 65.860625 10.6953125 71.640625 C-0.93467963 76.84808416 -11.68542464 78.38764661 -24.3046875 76.640625 C-25.243125 76.53878906 -26.1815625 76.43695312 -27.1484375 76.33203125 C-36.47074124 75.0619983 -44.24210076 70.98183843 -50.0625 63.484375 C-57.95494502 51.76980252 -59.18199408 37.66714878 -56.6171875 23.96875 C-53.52634583 12.99626209 -48.05718737 4.336007 -38.234375 -1.61328125 C-27.23415825 -6.96423415 -10.49222936 -6.18863698 0 0 Z M-33.2421875 16.265625 C-35.96293798 20.30824845 -35.96293798 20.30824845 -37.3046875 28.640625 C-26.4146875 28.640625 -15.5246875 28.640625 -4.3046875 28.640625 C-4.90091787 19.89871665 -4.90091787 19.89871665 -9.375 14.02734375 C-17.13083017 8.45382207 -26.47344736 10.2169636 -33.2421875 16.265625 Z " fill="#D83F40" transform="translate(614.3046875,472.359375)"/>
<path d="M0 0 C-0.14100857 2.27113803 -0.28796755 4.54190725 -0.4375 6.8125 C-0.51871094 8.07707031 -0.59992187 9.34164063 -0.68359375 10.64453125 C-1 14 -1 14 -2 17 C-2.680625 16.835 -3.36125 16.67 -4.0625 16.5 C-9.03601927 15.65344353 -12.71465609 15.14310406 -17 18 C-18.1874822 21.56244661 -18.35067208 24.97318643 -18.5625 28.6875 C-18.706875 31.100625 -18.85125 33.51375 -19 36 C-13.39 36 -7.78 36 -2 36 C-2 40.95 -2 45.9 -2 51 C-7.61 51 -13.22 51 -19 51 C-19 71.79 -19 92.58 -19 114 C-26.26 114 -33.52 114 -41 114 C-41 93.21 -41 72.42 -41 51 C-45.62 51 -50.24 51 -55 51 C-55 46.05 -55 41.1 -55 36 C-50.38 36 -45.76 36 -41 36 C-41.04125 34.4325 -41.0825 32.865 -41.125 31.25 C-41.07149277 20.84284373 -40.12309708 12.02626489 -33 4 C-24.2435814 -3.42392011 -10.61048516 -3.53682839 0 0 Z " fill="#D73F40" transform="translate(903,434)"/>
<path d="M0 0 C6.05206912 4.8574335 9.00954052 11.05935618 10.59765625 18.55859375 C10.71070567 20.42133071 10.77356066 22.2873879 10.80297852 24.15332031 C10.83289635 25.83461029 10.83289635 25.83461029 10.86341858 27.54986572 C10.88013107 28.75415222 10.89684357 29.95843872 10.9140625 31.19921875 C10.9348436 32.43653748 10.95562469 33.6738562 10.97703552 34.94866943 C11.03131497 38.22998066 11.08157404 41.51132108 11.12988281 44.79272461 C11.18021717 48.14442479 11.23591985 51.49603095 11.29101562 54.84765625 C11.39810138 61.41790054 11.49939751 67.98821176 11.59765625 74.55859375 C6.97765625 74.55859375 2.35765625 74.55859375 -2.40234375 74.55859375 C-2.89734375 70.59859375 -2.89734375 70.59859375 -3.40234375 66.55859375 C-3.87542969 67.04070312 -4.34851563 67.5228125 -4.8359375 68.01953125 C-13.08947685 75.90302888 -20.71572748 75.97983049 -31.87109375 75.8125 C-38.66216246 75.32420413 -44.10437179 72.89329808 -49.40234375 68.55859375 C-54.40756958 61.71438718 -55.19458458 54.82545462 -54.40234375 46.55859375 C-52.59272225 39.91947282 -48.04739487 35.27790836 -42.40234375 31.55859375 C-30.20514013 25.62190172 -17.61360263 26.4303291 -4.40234375 26.55859375 C-5.28993565 19.85528779 -6.12889101 15.04663863 -11.40234375 10.55859375 C-17.68448562 7.84096698 -24.8387864 8.00545251 -31.40234375 9.55859375 C-34.70520346 10.97130981 -37.82543859 12.54404929 -40.96875 14.28125 C-43.40234375 15.55859375 -43.40234375 15.55859375 -45.40234375 15.55859375 C-45.40234375 11.26859375 -45.40234375 6.97859375 -45.40234375 2.55859375 C-32.33689017 -5.01936933 -13.60058919 -8.16035352 0 0 Z M-34.40234375 42.55859375 C-37.14342574 45.73247817 -38.27668166 47.86745226 -39.02734375 51.99609375 C-38.19834934 56.72136188 -36.00590625 59.45479539 -32.40234375 62.55859375 C-26.10731468 64.65693677 -19.24746547 64.21423174 -13.15625 61.60546875 C-8.5566761 58.86006607 -6.04551341 54.56879409 -4.40234375 49.55859375 C-4.16263286 46.66207546 -4.16263286 46.66207546 -4.27734375 43.74609375 C-4.29539062 42.77027344 -4.3134375 41.79445313 -4.33203125 40.7890625 C-4.35523438 40.05300781 -4.3784375 39.31695312 -4.40234375 38.55859375 C-11.89360384 34.81296371 -27.89090447 37.88371427 -34.40234375 42.55859375 Z " fill="#0067A3" transform="translate(418.40234375,472.44140625)"/>
<path d="M0 0 C10.58580517 9.85790108 10.89941386 23.24120794 11.8125 36.9375 C-6.0075 36.9375 -23.8275 36.9375 -42.1875 36.9375 C-39.55375958 48.85854234 -39.55375958 48.85854234 -31.125 56.875 C-24.073646 60.99410778 -15.71689591 61.07659718 -7.91015625 59.11328125 C-3.25564575 57.56561336 1.25793982 55.75932407 5.8125 53.9375 C5.8125 58.8875 5.8125 63.8375 5.8125 68.9375 C-9.35166348 73.64869642 -23.81593232 75.18851728 -39.1875 69.9375 C-47.77109549 65.33914527 -53.60688089 57.71988748 -57 48.6875 C-60.24758561 36.73638495 -59.82408042 21.4940984 -53.8984375 10.55859375 C-48.18866871 1.29166953 -41.16538678 -3.70888321 -30.5625 -6.3125 C-19.72603707 -8.27826081 -8.72050169 -6.88887215 0 0 Z M-36.0625 10.125 C-40.04957635 15.40201282 -42.1875 19.22863146 -42.1875 25.9375 C-29.6475 25.9375 -17.1075 25.9375 -4.1875 25.9375 C-5.20539723 17.79432217 -5.84839286 14.46741326 -11.375 8.625 C-19.74331737 3.60400958 -28.27171587 4.19722946 -36.0625 10.125 Z " fill="#0067A3" transform="translate(58.1875,475.0625)"/>
<path d="M0 0 C0 6.93 0 13.86 0 21 C5.94 21 11.88 21 18 21 C18 26.28 18 31.56 18 37 C12.06 37 6.12 37 0 37 C0.07419944 42.42679355 0.15720709 47.85199888 0.26245117 53.27807617 C0.29559026 55.12174088 0.32365613 56.96550436 0.34643555 58.80932617 C0.38018512 61.46836208 0.43250966 64.12650187 0.48828125 66.78515625 C0.49467117 67.60210464 0.5010611 68.41905304 0.50764465 69.26075745 C0.64139994 74.53335609 1.50574406 78.32379572 4 83 C6.33937907 84.16968953 7.77369368 84.13364221 10.375 84.125 C11.14585937 84.12757813 11.91671875 84.13015625 12.7109375 84.1328125 C15.3152886 84.05288166 15.3152886 84.05288166 19 83 C19.495 91.415 19.495 91.415 20 100 C9.64322477 102.12126722 -1.78907931 103.89035186 -11.35546875 98.2109375 C-17.84801235 93.43020468 -19.74005649 87.75768855 -21 80 C-21.48384854 72.61773586 -21.28359819 65.20480811 -21.1875 57.8125 C-21.17242767 55.79102558 -21.15874378 53.76954031 -21.14648438 51.74804688 C-21.11367671 46.8317599 -21.06203458 41.9160015 -21 37 C-25.95 37 -30.9 37 -36 37 C-36 31.72 -36 26.44 -36 21 C-31.05 21 -26.1 21 -21 21 C-21 16.05 -21 11.1 -21 6 C-18.25262623 4.99222971 -15.50250048 3.99358554 -12.75 3 C-11.97269531 2.71382813 -11.19539062 2.42765625 -10.39453125 2.1328125 C-9.26337891 1.72675781 -9.26337891 1.72675781 -8.109375 1.3125 C-7.41811523 1.06113281 -6.72685547 0.80976563 -6.01464844 0.55078125 C-4 0 -4 0 0 0 Z " fill="#D73F40" transform="translate(673,448)"/>
<path d="M0 0 C7.01254067 4.46913214 10.65445326 10.25970266 12.53611755 18.28715515 C13.02073158 21.12124099 13.12013263 23.74230708 13.11352539 26.61645508 C13.11341209 28.26760063 13.11341209 28.26760063 13.11329651 29.95210266 C13.10813522 31.1293541 13.10297394 32.30660553 13.09765625 33.51953125 C13.0962413 34.73323898 13.09482635 35.94694672 13.09336853 37.19743347 C13.08777665 41.06914752 13.07522558 44.94080347 13.0625 48.8125 C13.05748395 51.43945229 13.05292123 54.06640549 13.04882812 56.69335938 C13.03780987 63.12892859 13.02055075 69.56445445 13 76 C8.05 76 3.1 76 -2 76 C-2.01458252 74.50218994 -2.02916504 73.00437988 -2.04418945 71.46118164 C-2.1023976 65.87549614 -2.17962931 60.29020427 -2.26245117 54.70483398 C-2.29559475 52.29278986 -2.32365918 49.88067015 -2.34643555 47.46850586 C-2.38017572 43.99039665 -2.43250262 40.51297356 -2.48828125 37.03515625 C-2.49467117 35.96604507 -2.5010611 34.8969339 -2.50764465 33.79542542 C-2.64957292 26.47909738 -3.33608091 19.58251188 -7.8125 13.5625 C-12.67373898 10.09018644 -16.99282318 9.62047663 -22.7578125 10.46484375 C-27.60651584 11.62211267 -30.92609369 13.77694003 -34.25 17.5625 C-40.22002454 29.28933392 -39.54504846 41.84738965 -39.6875 54.6875 C-39.72072253 56.75718245 -39.75521663 58.82684489 -39.79101562 60.89648438 C-39.87535414 65.93087841 -39.94242889 70.96523163 -40 76 C-44.95 76 -49.9 76 -55 76 C-55 50.59 -55 25.18 -55 -1 C-50.38 -1 -45.76 -1 -41 -1 C-40.67 1.97 -40.34 4.94 -40 8 C-39.55011719 7.54109375 -39.10023438 7.0821875 -38.63671875 6.609375 C-27.98175128 -3.55448174 -13.53705506 -6.30831256 0 0 Z " fill="#0067A3" transform="translate(184,471)"/>
<path d="M0 0 C4.95 0 9.9 0 15 0 C15.01458252 1.3912207 15.02916504 2.78244141 15.04418945 4.21582031 C15.10260176 9.42700621 15.17982904 14.63777922 15.26245117 19.84863281 C15.29549992 22.09465788 15.32359277 24.34076201 15.34643555 26.58691406 C15.38035294 29.83432393 15.43268445 33.08102221 15.48828125 36.328125 C15.49467117 37.31613098 15.5010611 38.30413696 15.50764465 39.32208252 C15.75931513 51.58028915 15.75931513 51.58028915 20.9198761 62.28253174 C25.50431755 66.06770659 31.3484439 65.48441909 37 65 C40.45346148 63.65253476 40.45346148 63.65253476 43 62 C43.66 62 44.32 62 45 62 C45.268125 61.443125 45.53625 60.88625 45.8125 60.3125 C47 58 47 58 48.5 55.75 C52.18647458 48.99146326 52.32196652 41.89362906 52.4140625 34.375 C52.43342865 33.38749756 52.4527948 32.39999512 52.4727478 31.38256836 C52.53211659 28.25513107 52.57875713 25.12765611 52.625 22 C52.66321912 19.86847429 52.7022731 17.73696338 52.7421875 15.60546875 C52.83778271 10.40376722 52.9219701 5.20199347 53 0 C57.95 0 62.9 0 68 0 C68 25.41 68 50.82 68 77 C63.38 77 58.76 77 54 77 C53.505 72.545 53.505 72.545 53 68 C52.5153125 68.47050781 52.030625 68.94101562 51.53125 69.42578125 C42.94552726 77.40059679 35.52367525 78.72719431 24.08203125 78.3515625 C17.57377271 77.93838692 13.17131627 75.78530449 8.1875 71.6875 C0.34047352 62.04686747 -0.3075126 52.62344514 -0.1953125 40.52734375 C-0.1924826 39.3636879 -0.18965271 38.20003204 -0.18673706 37.00111389 C-0.17561231 33.31313451 -0.15052183 29.62540501 -0.125 25.9375 C-0.11496025 23.42513374 -0.10583615 20.91276363 -0.09765625 18.40039062 C-0.07569819 12.26683195 -0.04122161 6.13345823 0 0 Z " fill="#0067A3" transform="translate(220,470)"/>
<path d="M0 0 C0 6.93 0 13.86 0 21 C-2.18625 20.896875 -4.3725 20.79375 -6.625 20.6875 C-12.5510487 20.55072725 -12.5510487 20.55072725 -17.6875 23.0625 C-23.66397268 30.65423557 -24.1434375 38.43464305 -24.31640625 47.67578125 C-24.33718735 48.6009404 -24.35796844 49.52609955 -24.37937927 50.47929382 C-24.4445656 53.42362307 -24.50361558 56.36803865 -24.5625 59.3125 C-24.60571464 61.31315983 -24.64932986 63.31381106 -24.69335938 65.31445312 C-24.8009662 70.20954836 -24.90026939 75.10471264 -25 80 C-31.93 80 -38.86 80 -46 80 C-46 53.93 -46 27.86 -46 1 C-40.06 1 -34.12 1 -28 1 C-27.67 5.29 -27.34 9.58 -27 14 C-26.505 13.154375 -26.01 12.30875 -25.5 11.4375 C-18.66130743 1.14269399 -11.73803022 -0.12621538 0 0 Z " fill="#D73F40" transform="translate(751,468)"/>
<path d="M0 0 C0.02708567 1.60407328 0.04643483 3.2082785 0.0625 4.8125 C0.07410156 5.70582031 0.08570313 6.59914063 0.09765625 7.51953125 C0 10 0 10 -1 13 C-1.76183594 12.77183594 -2.52367187 12.54367187 -3.30859375 12.30859375 C-11.18115946 10.11685573 -17.30277831 9.14068308 -25 12.1875 C-27.22813591 13.91579614 -27.22813591 13.91579614 -28 16.875 C-28 20.64093699 -27.19635983 21.98174967 -25 25 C-22.74163644 26.61587806 -22.74163644 26.61587806 -20.10546875 27.83203125 C-19.14962891 28.32123047 -18.19378906 28.81042969 -17.20898438 29.31445312 C-15.20872604 30.30617785 -13.20614358 31.29322986 -11.20117188 32.27539062 C-3.92062573 36.01589956 1.34076982 40.02230946 4 48 C4.74014616 55.4014616 4.16077063 61.70361258 0 68 C-4.55194706 73.26642989 -10.32992088 76.4112077 -17.265625 77.28564453 C-19.64360284 77.40124068 -21.99464799 77.41532461 -24.375 77.375 C-25.20555908 77.36919922 -26.03611816 77.36339844 -26.8918457 77.35742188 C-33.0476595 77.22730584 -38.23738113 76.26725988 -44 74 C-44 69.38 -44 64.76 -44 60 C-40 61.33333333 -36 62.66666667 -32 64 C-23.81593612 64.82646733 -23.81593612 64.82646733 -16.3125 62.125 C-13.60722823 59.63907459 -13.10642987 58.79822403 -12.625 55.1875 C-13.10892923 51.07410158 -14.88615819 49.47249272 -18 47 C-21.08940516 45.02385217 -24.2829737 43.25877242 -27.5 41.5 C-41.77047738 33.69822294 -41.77047738 33.69822294 -44.55859375 25.23828125 C-45.80419443 18.92209371 -44.54167032 12.41758232 -41.42578125 6.8203125 C-32.40220443 -4.70019927 -12.60862552 -6.30431276 0 0 Z " fill="#0067A3" transform="translate(349,471)"/>
<path d="M0 0 C6.93 0 13.86 0 21 0 C21 25.74 21 51.48 21 78 C14.07 78 7.14 78 0 78 C0 52.26 0 26.52 0 0 Z " fill="#D73F40" transform="translate(914,470)"/>
<path d="M0 0 C4.95 0 9.9 0 15 0 C15 32.01 15 64.02 15 97 C10.05 97 5.1 97 0 97 C0 64.99 0 32.98 0 0 Z " fill="#0067A4" transform="translate(89,450)"/>
<path d="M0 0 C6.93 0 13.86 0 21 0 C21 6.6 21 13.2 21 20 C14.07 20 7.14 20 0 20 C0 13.4 0 6.8 0 0 Z " fill="#D73F40" transform="translate(914,436)"/>
</svg>
