<svg width="1804" height="540" viewBox="0 0 1804 540" fill="none" xmlns="http://www.w3.org/2000/svg">
<path d="M0.560059 449.58C4.89006 442.59 8.67006 436.29 12.6501 430.13C19.9901 418.77 27.0101 407.17 34.3001 395.78C40.0201 386.85 45.3801 377.67 51.2601 368.89C58.3901 358.25 64.7301 347.06 71.7901 336.41C78.8701 325.74 85.2401 314.57 92.3301 303.94C99.0301 293.89 105.18 283.47 111.71 273.31C114.42 269.09 117.43 265.05 119.82 260.63C121.23 258.02 123.24 255.93 124.49 253.17C125.77 250.35 128 248.04 129.67 245.42C131.24 242.96 132.58 240.33 134.12 237.84C137.99 231.58 141.91 225.36 145.82 219.12C146.84 217.49 147.8 215.81 148.97 214.31C151.21 211.44 153.45 208.56 155.92 205.92C161.98 199.42 169.42 195.17 177.49 192.54C181.05 191.38 184.85 190.46 188.72 190.31C190.67 190.24 192.53 189.19 194.6 189.37C196.58 189.55 198.61 189.71 200.5 188.52C201.05 188.17 201.96 188.47 202.7 188.47C245.99 188.47 289.29 188.47 332.58 188.47C333.01 188.47 333.45 188.47 334.3 188.47C333.14 190.55 332.38 192.62 331.07 194.15C327.4 198.43 324.88 203.56 321.81 208.26C316.74 216.02 312.14 224.11 306.9 231.76C301.69 239.37 297.16 247.5 292.25 255.35C288.65 261.1 284.85 266.71 281.28 272.48C274.47 283.47 267.95 294.66 260.94 305.5C256.86 311.82 252.68 318.06 248.75 324.49C242.46 334.78 236.12 345.03 229.75 355.26C224.14 364.26 218.45 373.19 212.79 382.16C207.21 391 201.44 399.71 196.15 408.74C193.64 413.03 191.46 417.59 188.6 421.59C186.05 425.16 182.89 428.24 179.85 431.38C178.66 432.6 176.99 433.27 175.68 434.38C171.04 438.36 165.32 439.92 160.03 442.41C157.65 443.53 155 444 152.48 444.81C148.6 446.07 144.56 446.59 140.62 447.56C137.14 448.42 133.41 448.05 129.86 448.68C119.59 450.48 109.27 449.33 98.9801 449.54C88.4201 449.76 77.8501 449.59 67.2901 449.59C56.8801 449.59 46.4601 449.59 36.0501 449.59C25.6401 449.59 15.2201 449.59 4.81006 449.59C3.66006 449.58 2.50006 449.58 0.560059 449.58Z" fill="#0B499D"/>
<path d="M561.51 190.37C557.53 196.65 554.05 202.11 550.59 207.57C545.63 215.41 540.56 223.16 535.61 231.01C531.84 236.99 528.13 243.06 524.17 248.9C518.8 256.81 514.1 265.21 508.82 273.15C504.17 280.15 499.84 287.36 495.32 294.44C490.43 302.1 485.62 309.81 481.35 317.9C481.14 318.3 480.81 318.63 480.52 318.97C474.75 325.67 468.4 331.43 460.36 334.95C456.26 336.75 452.13 338.32 447.87 339.6C443.54 340.9 439.17 341.85 434.72 342.62C432.3 343.04 429.8 342.91 427.51 343.55C424.93 344.27 422.4 344.36 419.81 344.38C417.28 344.4 414.68 343.97 412.23 344.46C403.3 346.26 394.31 345.06 385.36 345.29C376.29 345.52 367.21 345.34 358.13 345.34C349.2 345.34 340.27 345.34 331.35 345.34C322.27 345.34 313.2 345.34 304.12 345.33C303.71 345.33 303.3 345.22 302.43 345.1C302.85 343.95 303.04 342.92 303.55 342.12C305.7 338.75 308.1 335.56 310.12 332.11C313.47 326.38 317.19 320.92 320.74 315.35C325.49 307.88 330.36 300.48 335.21 293.08C338.44 288.14 341.31 282.91 344.81 278.21C349.14 272.39 352.39 265.8 356.8 260.03C360.25 255.52 362.99 250.38 366.03 245.51C369.61 239.77 373.16 234.01 376.77 228.29C378.82 225.04 381.02 221.9 383.06 218.64C387.21 212.01 391.07 208.09 396.18 203.44C399.06 200.82 402.35 199.3 405.55 197.53C408.62 195.84 411.92 194.78 415.39 194.07C418.57 193.42 421.76 192.82 424.91 192.13C429.14 191.2 433.42 192.04 437.49 191.17C442.02 190.2 446.49 190.5 450.99 190.39C455.45 190.28 459.92 190.37 464.38 190.37C495.03 190.37 525.68 190.37 556.33 190.37C557.81 190.37 559.26 190.37 561.51 190.37Z" fill="#A1C60F"/>
<path d="M296.47 0.0301039C298.38 0.0301039 299.71 0.0301039 301.03 0.0301039C340.17 0.0301039 379.31 -0.00990828 418.45 0.0800917C422.79 0.0900917 427.16 0.690108 431.45 1.19011C435.85 1.70011 440.36 2.48011 444.63 3.91011C449.9 5.68011 455.16 7.63011 459.59 11.3801C461.63 13.1101 463.62 14.9101 465.53 16.7901C471.29 22.4301 475.54 29.3701 479.8 36.2801C484.05 43.1501 487.89 50.3301 492.47 56.9201C495.93 61.8901 498.84 67.2401 502.27 72.1701C505.73 77.1501 508.66 82.4701 512.07 87.4301C514.92 91.5701 517.37 95.9901 520.25 100.06C523.07 104.05 525.36 108.39 528.13 112.35C533.2 119.61 537.76 127.23 542.68 134.58C546.72 140.61 550.41 146.92 554.81 152.68C554.95 152.86 554.8 153.29 554.76 154.02C553.79 154.02 552.8 154.02 551.82 154.02C513.72 154.02 475.62 154.03 437.52 153.98C435.56 153.98 433.59 153.44 431.64 153.05C429.69 152.66 427.53 154 425.72 152.15C425.41 151.83 424.57 152.08 423.97 152.11C419.93 152.3 416.1 150.89 412.29 149.93C406.95 148.58 401.69 146.61 396.6 144.37C392.09 142.39 387.97 139.49 384.13 136.2C378.64 131.51 374.87 125.47 371.47 118.95C368.74 113.72 365.22 108.96 362.09 103.97C355.77 93.8701 349.62 83.6401 343.12 73.6701C337.82 65.5301 332.86 57.1501 327.56 49.0201C324.98 45.0601 322.73 40.8201 319.87 37.1301C315.43 31.3901 312.38 24.6401 307.84 18.9801C305.58 16.1701 304.01 12.7301 302.07 9.61009C300.43 6.98009 298.71 4.41011 297.05 1.79011C296.85 1.44011 296.79 0.970104 296.47 0.0301039Z" fill="#FD000D"/>
<path d="M708.54 337.74H673.36V190.24H712.58C727.94 190.24 738.73 191.05 744.94 192.66C751.15 194.27 756.42 197.03 760.74 200.92C765.82 205.42 769.69 211.05 772.36 217.8C775.02 224.55 776.36 232.06 776.36 240.32C776.36 249.12 775.04 256.86 772.41 263.54C769.78 270.22 765.89 275.71 760.75 280.01C756.86 283.23 752.28 285.55 747.02 286.96C741.75 288.37 733.32 289.08 721.72 289.08H715.32H708.55V337.74H708.54ZM708.54 256.63H715.69C724.72 256.63 731.02 255.3 734.6 252.65C738.17 250 739.96 245.48 739.96 239.1C739.96 232.92 738.2 228.52 734.69 225.9C731.18 223.28 724.97 221.97 716.07 221.97H708.54V256.63Z" fill="#090E09"/>
<path d="M795.45 337.74V190.24H879.82V222.58H832.04V248.17H877.1V279.8H832.04V304.69H879.82V337.74H795.45Z" fill="#090E09"/>
<path d="M904.66 337.74V190.24H943.88C959.24 190.24 969.95 191 976 192.51C982.05 194.02 987.27 196.56 991.66 200.12C996.61 204.15 1000.42 209.29 1003.09 215.53C1005.75 221.78 1007.09 228.66 1007.09 236.18C1007.09 247.6 1004.47 256.88 999.24 264.04C994 271.19 986.37 275.95 976.34 278.3L1013.87 337.74H971.45L939.85 280.01V337.74H904.66ZM939.84 259.96H946.8C954.89 259.96 960.8 258.48 964.53 255.53C968.26 252.58 970.13 247.94 970.13 241.63C970.13 234.24 968.39 228.99 964.91 225.86C961.43 222.74 955.58 221.17 947.37 221.17H939.84V259.96Z" fill="#090E09"/>
<path d="M1048.01 337.74V225.1H1017.16V190.24H1116.4V225.1H1085.55V337.74H1048.01Z" fill="#090E09"/>
<path d="M1110.75 337.74L1158.25 190.24H1205.28L1252.88 337.74H1215.54L1208.58 311.34H1155.25L1148.1 337.74H1110.75ZM1163.33 282.63H1200.67L1186.65 233.97C1186.21 232.49 1185.62 230.11 1184.86 226.82C1184.11 223.53 1183.13 219.3 1181.94 214.13C1181.12 217.76 1180.33 221.22 1179.54 224.51C1178.76 227.8 1177.96 230.96 1177.14 233.98L1163.33 282.63Z" fill="#090E09"/>
<path d="M1423.98 337.74H1388.89L1380.8 273.97C1380.24 269.47 1379.72 264.47 1379.25 258.96C1378.78 253.45 1378.36 247.44 1377.98 240.93C1377.1 247.18 1375.38 254.97 1372.81 264.3C1372.25 266.25 1371.84 267.69 1371.59 268.63L1352.87 337.74H1327.85L1309.13 268.63C1308.88 267.69 1308.5 266.25 1308 264.3C1305.37 254.96 1303.64 247.21 1302.83 241.03C1302.45 246.61 1302.01 252.13 1301.51 257.6C1301.01 263.08 1300.41 268.53 1299.72 273.97L1291.63 337.74H1256.73L1277.99 190.24H1315.15L1335.94 266.31C1336.07 266.85 1336.32 267.72 1336.69 268.93C1338.63 275.71 1339.86 281.52 1340.36 286.36C1340.61 283.74 1341.08 280.84 1341.77 277.65C1342.46 274.46 1343.4 270.62 1344.59 266.11L1365.57 190.25H1402.82L1423.98 337.74Z" fill="#090E09"/>
<path d="M1445.15 337.74V190.24H1483.06V337.74H1445.15Z" fill="#090E09"/>
<path d="M1513.34 337.74V190.24H1549.55L1601.57 266.1C1602.57 267.65 1604.22 270.75 1606.51 275.42C1608.8 280.09 1611.32 285.65 1614.08 292.09C1613.33 285.98 1612.78 280.54 1612.43 275.77C1612.08 271 1611.91 266.77 1611.91 263.08V190.24H1647.94V337.74H1611.91L1559.89 261.57C1558.82 260.03 1557.15 256.92 1554.86 252.25C1552.57 247.58 1550.08 242.09 1547.38 235.78C1548.13 241.96 1548.68 247.43 1549.03 252.2C1549.37 256.97 1549.55 261.2 1549.55 264.89V337.73H1513.34V337.74Z" fill="#090E09"/>
<path d="M1661.31 337.74L1708.81 190.24H1755.84L1803.44 337.74H1766.1L1759.14 311.34H1705.81L1698.66 337.74H1661.31ZM1713.89 282.63H1751.23L1737.21 233.97C1736.77 232.49 1736.18 230.11 1735.42 226.82C1734.67 223.53 1733.69 219.3 1732.5 214.13C1731.68 217.76 1730.89 221.22 1730.1 224.51C1729.32 227.8 1728.52 230.96 1727.7 233.98L1713.89 282.63Z" fill="#090E09"/>
<path d="M689.76 492.78V536.21H675.02V439.44H698.82C705.87 439.44 711.06 439.83 714.39 440.6C717.72 441.37 720.61 442.64 723.08 444.4C726.12 446.65 728.5 449.68 730.22 453.49C731.94 457.3 732.8 461.5 732.8 466.08C732.8 470.66 731.94 474.89 730.22 478.77C728.5 482.65 726.12 485.69 723.08 487.89C720.61 489.65 717.71 490.91 714.39 491.66C711.06 492.41 705.87 492.78 698.82 492.78H695.71H689.76ZM690.75 479.89H694.78C703.51 479.89 709.32 478.94 712.23 477.05C715.14 475.16 716.59 471.81 716.59 467C716.59 461.84 715.04 458.21 711.93 456.09C708.82 453.98 703.11 452.92 694.78 452.92H690.75V479.89Z" fill="#FD000D"/>
<path d="M803.59 536.21L792.62 511.29H754.28L743.04 536.21H726.51L773.38 435.6L820.18 536.21H803.59ZM760.09 498.2H787.06L777.15 476.12C776.58 474.71 775.98 473.09 775.37 471.26C774.75 469.43 774.14 467.39 773.52 465.15C772.99 467.27 772.43 469.24 771.83 471.07C771.23 472.9 770.63 474.59 770.01 476.13L760.09 498.2Z" fill="#FD000D"/>
<path d="M853.16 452.79V536.21H837.43V452.79H811.72V439.44H878.75V452.79H853.16Z" fill="#FD000D"/>
<path d="M905.51 492.92V536.22H890.77V439.45H912.72C919.15 439.45 924.14 439.87 927.69 440.71C931.24 441.55 934.27 442.93 936.78 444.87C939.78 447.21 942.09 450.22 943.72 453.93C945.35 457.63 946.17 461.69 946.17 466.09C946.17 473.85 944.3 479.92 940.55 484.3C936.8 488.69 931.27 491.32 923.96 492.2L957.27 536.22H939.49L907.3 492.92H905.51ZM906.5 480.69H909.34C917.67 480.69 923.2 479.72 925.93 477.78C928.66 475.84 930.03 472.4 930.03 467.47C930.03 462.14 928.56 458.38 925.63 456.2C922.7 454.02 917.27 452.93 909.34 452.93H906.5V480.69Z" fill="#FD000D"/>
<path d="M1030.51 536.21L1019.54 511.29H981.2L969.96 536.21H953.43L1000.3 435.6L1047.1 536.21H1030.51ZM987.02 498.2H1013.99L1004.07 476.12C1003.5 474.71 1002.9 473.09 1002.29 471.26C1001.67 469.43 1001.06 467.39 1000.44 465.15C999.91 467.27 999.35 469.24 998.75 471.07C998.16 472.9 997.55 474.59 996.93 476.13L987.02 498.2Z" fill="#FD000D"/>
<path d="M1097.07 536.21V435.61L1158.54 494.77C1160.21 496.44 1161.91 498.23 1163.63 500.12C1165.35 502.02 1167.16 504.15 1169.05 506.53V439.44H1183.59V539.98L1120.86 479.76C1119.18 478.13 1117.57 476.41 1116 474.6C1114.44 472.79 1112.95 470.9 1111.54 468.91V536.2H1097.07V536.21Z" fill="#FD000D"/>
<path d="M1206.07 536.21V439.44H1221.8V536.21H1206.07Z" fill="#FD000D"/>
<path d="M1308.33 536.21L1297.36 511.29H1259.02L1247.78 536.21H1231.25L1278.11 435.6L1324.91 536.21H1308.33ZM1264.84 498.2H1291.81L1281.89 476.12C1281.32 474.71 1280.72 473.09 1280.11 471.26C1279.49 469.43 1278.88 467.39 1278.26 465.15C1277.73 467.27 1277.17 469.24 1276.57 471.07C1275.98 472.9 1275.37 474.59 1274.75 476.13L1264.84 498.2Z" fill="#FD000D"/>
<path d="M1385.27 486.64H1423.61C1423.61 487.3 1423.63 488.23 1423.68 489.42C1423.81 492.55 1423.88 494.66 1423.88 495.77C1423.88 509.39 1419.98 519.96 1412.18 527.5C1404.38 535.04 1393.38 538.8 1379.2 538.8C1371.27 538.8 1364.19 537.63 1357.98 535.3C1351.77 532.96 1346.32 529.44 1341.65 524.72C1337.07 520.05 1333.55 514.56 1331.11 508.26C1328.66 501.96 1327.44 495.22 1327.44 488.03C1327.44 480.72 1328.68 473.97 1331.18 467.8C1333.67 461.63 1337.36 456.19 1342.25 451.47C1346.97 446.84 1352.5 443.32 1358.84 440.89C1365.18 438.47 1371.97 437.25 1379.2 437.25C1386.82 437.25 1393.64 438.64 1399.66 441.41C1405.68 444.19 1411.04 448.44 1415.76 454.17L1404.26 462.83C1401 459.04 1397.32 456.22 1393.22 454.37C1389.12 452.52 1384.54 451.59 1379.47 451.59C1368.98 451.59 1360.42 454.95 1353.79 461.67C1347.16 468.39 1343.84 477.13 1343.84 487.88C1343.84 498.81 1347.15 507.68 1353.79 514.48C1360.42 521.29 1369.03 524.69 1379.6 524.69C1388.59 524.69 1395.66 522.6 1400.82 518.41C1405.98 514.22 1408.55 508.52 1408.55 501.29V499.9H1385.28V486.64H1385.27Z" fill="#FD000D"/>
<path d="M1504.32 536.21L1493.35 511.29H1455.01L1443.77 536.21H1427.24L1474.1 435.6L1520.9 536.21H1504.32ZM1460.82 498.2H1487.79L1477.87 476.12C1477.3 474.71 1476.7 473.09 1476.09 471.26C1475.47 469.43 1474.86 467.39 1474.24 465.15C1473.71 467.27 1473.15 469.24 1472.55 471.07C1471.96 472.9 1471.35 474.59 1470.73 476.13L1460.82 498.2Z" fill="#FD000D"/>
</svg>
